# xmcd
#
# Track frame offsets: 
#        150
#        12390
#        23674
#        36983
#        48706
#        60536
#        71180
#        81608
#        90603
#        103802
#        119181
#        130223
#        144602
#        161327
#        173778
#        187745
#        198895
#        213211
#        225899
#        237984
#        250497
#        263999
#        278121
#        290319
#        303827
#        314108
#        328573
#        342145
#
# Disc length: 4720 seconds
#
# Revision: 0
# Processed by: cddbd v1.4PL0 Copyright (c) Steve Scherf et al.
# Submitted via: ExactAudioCopy v0.95a2
#
DISCID=9f126e1c
DTITLE=Johnny Darrell - Singin' It  Lonesome  The Very Best..1965-1970
DYEAR=1900
DGENRE=Country
TTITLE0=Green Green Grass of Home
TTITLE1=As Long as the Wind Blows
TTITLE2=Johnnie Lose It All
TTITLE3=Don't Tell My Little Girl
TTITLE4=She's Mighty Gone
TTITLE5=Mental Revenge
TTITLE6=Ruby Don't Take Your Love to Town
TTITLE7=Come See What's Left of Your Man
TTITLE8=The Son Of Hickory Holler's Tramp
TTITLE9=With Pen in Hand
TTITLE10=I Ain't Buying
TTITLE11=Woman Without Love
TTITLE12=The Coming of the Roads
TTITLE13=Why You Been Gone So Long?
TTITLE14=River Bottom
TTITLE15=Winter's Coming On
TTITLE16=These Days
TTITLE17=Willin'
TTITLE18=She's Headed for the Country
TTITLE19=Sing it Lonesome
TTITLE20=Brother River
TTITLE21=Mama Come and Get Your Baby Boy
TTITLE22=Mae Jean Goes to Hollywood
TTITLE23=Bed of Roses
TTITLE24=Snowblind Friend
TTITLE25=Meanwhile Back in Memphis
TTITLE26=Freedom in the Yard
TTITLE27=Trouble Maker
EXTD=
EXTT0=
EXTT1=
EXTT2=
EXTT3=
EXTT4=
EXTT5=
EXTT6=
EXTT7=
EXTT8=
EXTT9=
EXTT10=
EXTT11=
EXTT12=
EXTT13=
EXTT14=
EXTT15=
EXTT16=
EXTT17=
EXTT18=
EXTT19=
EXTT20=
EXTT21=
EXTT22=
EXTT23=
EXTT24=
EXTT25=
EXTT26=
EXTT27=
PLAYORDER=
